<svg width="19" height="21" viewBox="0 0 19 21" fill="none" xmlns="http://www.w3.org/2000/svg">
<path d="M1.14001 4.9848H2.97909M2.97909 4.9848H17.6917M2.97909 4.9848V17.8584C2.97909 18.3461 3.17285 18.8139 3.51775 19.1588C3.86264 19.5037 4.33042 19.6974 4.81818 19.6974H14.0136C14.5013 19.6974 14.9691 19.5037 15.314 19.1588C15.6589 18.8139 15.8527 18.3461 15.8527 17.8584V4.9848M5.73772 4.9848V3.14572C5.73772 2.65797 5.93148 2.19019 6.27637 1.84529C6.62126 1.5004 7.08904 1.30664 7.5768 1.30664H11.255C11.7427 1.30664 12.2105 1.5004 12.5554 1.84529C12.9003 2.19019 13.094 2.65797 13.094 3.14572V4.9848" stroke="white" stroke-opacity="0.38" stroke-linecap="round" stroke-linejoin="round"/>
</svg>
