<svg width="19" height="20" viewBox="0 0 19 20" fill="none" xmlns="http://www.w3.org/2000/svg">
<path d="M8.69559 3.00063H2.60864C2.14739 3.00063 1.70504 3.18386 1.37889 3.51001C1.05274 3.83616 0.869507 4.27852 0.869507 4.73976V16.9137C0.869507 17.3749 1.05274 17.8173 1.37889 18.1434C1.70504 18.4696 2.14739 18.6528 2.60864 18.6528H14.7825C15.2438 18.6528 15.6862 18.4696 16.0123 18.1434C16.3385 17.8173 16.5217 17.3749 16.5217 16.9137V10.8267M15.2173 1.69628C15.5633 1.35035 16.0325 1.15601 16.5217 1.15601C17.0109 1.15601 17.4801 1.35035 17.826 1.69628C18.172 2.04222 18.3663 2.51141 18.3663 3.00063C18.3663 3.48986 18.172 3.95905 17.826 4.30498L9.56516 12.5659L6.0869 13.4354L6.95646 9.95715L15.2173 1.69628Z" stroke="white" stroke-opacity="0.38" stroke-linecap="round" stroke-linejoin="round"/>
</svg>
