<svg width="21" height="23" viewBox="0 0 21 23" fill="none" xmlns="http://www.w3.org/2000/svg">
<path d="M12.3631 21.327C12.1737 21.6503 11.902 21.9186 11.575 22.1051C11.248 22.2917 10.8773 22.3899 10.5 22.3899C10.1227 22.3899 9.75195 22.2917 9.42497 22.1051C9.098 21.9186 8.82624 21.6503 8.63691 21.327M16.9615 7.4603C16.9615 5.76292 16.2808 4.13505 15.069 2.93482C13.8572 1.73459 12.2137 1.0603 10.5 1.0603C8.78628 1.0603 7.14276 1.73459 5.93099 2.93482C4.71922 4.13505 4.03845 5.76292 4.03845 7.4603C4.03845 14.927 0.807678 17.0603 0.807678 17.0603H20.1923C20.1923 17.0603 16.9615 14.927 16.9615 7.4603Z" stroke="#229544" stroke-linecap="round" stroke-linejoin="round"/>
</svg>
