<svg width="20" height="22" viewBox="0 0 20 22" fill="none" xmlns="http://www.w3.org/2000/svg">
<path d="M6.23392 12.0325L13.0639 16.0125M13.0539 5.03246L6.23392 9.01246M18.6439 3.52246C18.6439 5.17932 17.3008 6.52246 15.6439 6.52246C13.9871 6.52246 12.6439 5.17932 12.6439 3.52246C12.6439 1.86561 13.9871 0.522461 15.6439 0.522461C17.3008 0.522461 18.6439 1.86561 18.6439 3.52246ZM6.64392 10.5225C6.64392 12.1793 5.30078 13.5225 3.64392 13.5225C1.98707 13.5225 0.643921 12.1793 0.643921 10.5225C0.643921 8.86561 1.98707 7.52246 3.64392 7.52246C5.30078 7.52246 6.64392 8.86561 6.64392 10.5225ZM18.6439 17.5225C18.6439 19.1793 17.3008 20.5225 15.6439 20.5225C13.9871 20.5225 12.6439 19.1793 12.6439 17.5225C12.6439 15.8656 13.9871 14.5225 15.6439 14.5225C17.3008 14.5225 18.6439 15.8656 18.6439 17.5225Z" stroke="#64F38E" stroke-linecap="round" stroke-linejoin="round"/>
</svg>
