<svg width="5" height="22" viewBox="0 0 5 22" fill="none" xmlns="http://www.w3.org/2000/svg">
<path d="M2.84354 12.1764C3.4808 12.1764 3.99739 11.6598 3.99739 11.0225C3.99739 10.3853 3.4808 9.86867 2.84354 9.86867C2.20629 9.86867 1.6897 10.3853 1.6897 11.0225C1.6897 11.6598 2.20629 12.1764 2.84354 12.1764Z" fill="white" fill-opacity="0.6"/>
<path d="M2.84354 4.09944C3.4808 4.09944 3.99739 3.58285 3.99739 2.94559C3.99739 2.30834 3.4808 1.79175 2.84354 1.79175C2.20629 1.79175 1.6897 2.30834 1.6897 2.94559C1.6897 3.58285 2.20629 4.09944 2.84354 4.09944Z" fill="white" fill-opacity="0.6"/>
<path d="M2.84354 20.2533C3.4808 20.2533 3.99739 19.7367 3.99739 19.0994C3.99739 18.4622 3.4808 17.9456 2.84354 17.9456C2.20629 17.9456 1.6897 18.4622 1.6897 19.0994C1.6897 19.7367 2.20629 20.2533 2.84354 20.2533Z" fill="white" fill-opacity="0.6"/>
<path d="M2.84354 12.6764C3.75694 12.6764 4.49739 11.9359 4.49739 11.0225C4.49739 10.1091 3.75694 9.36867 2.84354 9.36867C1.93015 9.36867 1.1897 10.1091 1.1897 11.0225C1.1897 11.9359 1.93015 12.6764 2.84354 12.6764ZM2.84354 4.59944C3.75694 4.59944 4.49739 3.85899 4.49739 2.94559C4.49739 2.0322 3.75694 1.29175 2.84354 1.29175C1.93015 1.29175 1.1897 2.0322 1.1897 2.94559C1.1897 3.85899 1.93015 4.59944 2.84354 4.59944ZM2.84354 20.7533C3.75694 20.7533 4.49739 20.0128 4.49739 19.0994C4.49739 18.186 3.75694 17.4456 2.84354 17.4456C1.93015 17.4456 1.1897 18.186 1.1897 19.0994C1.1897 20.0128 1.93015 20.7533 2.84354 20.7533Z" stroke="white" stroke-opacity="0.6" stroke-linecap="round" stroke-linejoin="round"/>
</svg>
